<?xml version="1.0" standalone="no"?>
<!DOCTYPE svg PUBLIC "-//W3C//DTD SVG 20010904//EN"
 "http://www.w3.org/TR/2001/REC-SVG-20010904/DTD/svg10.dtd">
<svg version="1.0" xmlns="http://www.w3.org/2000/svg"
 width="28.000000pt" height="28.000000pt" viewBox="0 0 28.000000 28.000000"
 preserveAspectRatio="xMidYMid meet">

<g transform="translate(0.000000,28.000000) scale(0.100000,-0.100000)"
fill="#000000" stroke="none">
<path d="M70 172 c6 -2 10 -24 10 -48 0 -31 6 -50 20 -64 45 -45 100 -9 100
64 0 24 5 46 10 48 6 2 -26 3 -70 3 -44 0 -75 -1 -70 -3z m120 -29 c-1 -48
-12 -63 -47 -63 -27 0 -33 -3 -27 -13 5 -7 1 -4 -8 6 -10 11 -18 34 -18 53 l0
34 50 0 c41 0 50 -3 50 -17z"/>
</g>
</svg>
