<?xml version="1.0" standalone="no"?>
<!DOCTYPE svg PUBLIC "-//W3C//DTD SVG 20010904//EN"
 "http://www.w3.org/TR/2001/REC-SVG-20010904/DTD/svg10.dtd">
<svg version="1.0" xmlns="http://www.w3.org/2000/svg"
 width="192.000000pt" height="192.000000pt" viewBox="0 0 192.000000 192.000000"
 preserveAspectRatio="xMidYMid meet">

<g transform="translate(0.000000,192.000000) scale(0.100000,-0.100000)"
fill="#000000" stroke="none">
<path d="M800 1750 c-135 -13 -258 -39 -350 -73 l-85 -32 0 -455 0 -455 33
-61 c18 -33 53 -84 78 -112 42 -48 446 -376 478 -388 18 -7 433 322 492 389
22 25 56 74 75 109 l34 63 3 452 3 452 -28 14 c-50 26 -186 64 -283 81 -117
19 -336 27 -450 16z m17 -324 l146 -135 144 135 145 134 94 0 95 0 -3 -378 -3
-377 -33 -67 c-23 -48 -51 -83 -95 -122 l-62 -56 -5 352 -5 351 -77 -86 -78
-85 0 -146 0 -146 -120 0 -120 0 0 146 0 147 -77 85 -78 85 -5 -352 -5 -352
-70 68 c-38 38 -81 91 -95 118 l-25 50 -3 383 -3 382 96 0 97 0 145 -134z"/>
</g>
</svg>
